# xmcd
#
# Track frame offsets:
#	150
#	12317
#	27804
#	42946
#	58850
#	75381
#	88929
#	101997
#	120240
#	136041
#	152441
#	168294
#	184211
#	197973
#
# Disc length: 2851 seconds
# Revision: 0
# Processed by: cddbd v1.5.2PL0 Copyright (c) Steve Scherf et al.
# Submitted via: dBpowerAMP V12.0
#
DISCID=ad0b210e
DTITLE=Graham Rodger - New Album
DYEAR=2015
DGENRE=Country
TTITLE0=Territory Man
TTITLE1=Stepping Over Spinifex
TTITLE2=Dusty Stopes And Drives
TTITLE3=Kidmans Boy
TTITLE4=The Eagle
TTITLE5=Ghosts of the Murranji
TTITLE6=Dusty Gauge
TTITLE7=A Little Town West of the Great Divide 
TTITLE8=The Brand That Sealed A Nation
TTITLE9=Trembling Lips 
TTITLE10=The Kimberley Riders
TTITLE11=City Cowboy Living On The Dole
TTITLE12=The Wellshot Hotel
TTITLE13=Duel at the Georgetown Pub
EXTD=
EXTT0=
EXTT1=
EXTT2=
EXTT3=
EXTT4=
EXTT5=
EXTT6=
EXTT7=
EXTT8=
EXTT9=
EXTT10=
EXTT11=
EXTT12=
EXTT13=
PLAYORDER=
